<?xml version="1.0" encoding="UTF-8" standalone="no"?><!DOCTYPE svg PUBLIC "-//W3C//DTD SVG 1.1//EN" "http://www.w3.org/Graphics/SVG/1.1/DTD/svg11.dtd"><svg width="100%" height="100%" viewBox="0 0 392 273" version="1.1" xmlns="http://www.w3.org/2000/svg" xmlns:xlink="http://www.w3.org/1999/xlink" xml:space="preserve" xmlns:serif="http://www.serif.com/" style="fill-rule:evenodd;clip-rule:evenodd;"><rect id="Artboard1" x="0" y="0" width="391.192" height="272.704" style="fill:none;"/><clipPath id="_clip1"><rect x="0" y="0" width="391.192" height="272.704"/></clipPath><g clip-path="url(#_clip1)"><rect x="-8.17" y="-1.305" width="401" height="277" style="fill:#eff3fd;fill-rule:nonzero;"/><g><path d="M30.695,313.718l360.348,-418.497" style="fill:none;fill-rule:nonzero;stroke:#becdf8;stroke-width:0.92px;"/><path d="M-88.887,72.652l360.348,-418.498" style="fill:none;fill-rule:nonzero;stroke:#becdf8;stroke-width:0.92px;"/><path d="M39.494,332.297l360.348,-418.497" style="fill:none;fill-rule:nonzero;stroke:#becdf8;stroke-width:0.92px;"/><path d="M-80.088,91.231l360.348,-418.497" style="fill:none;fill-rule:nonzero;stroke:#becdf8;stroke-width:0.92px;"/><path d="M48.294,350.876l360.348,-418.497" style="fill:none;fill-rule:nonzero;stroke:#becdf8;stroke-width:0.92px;"/><path d="M-71.29,109.81l360.348,-418.497" style="fill:none;fill-rule:nonzero;stroke:#becdf8;stroke-width:0.92px;"/><path d="M57.092,369.455l360.348,-418.497" style="fill:none;fill-rule:nonzero;stroke:#becdf8;stroke-width:0.92px;"/><path d="M-62.491,128.39l360.348,-418.497" style="fill:none;fill-rule:nonzero;stroke:#becdf8;stroke-width:0.92px;"/><path d="M65.891,388.035l360.348,-418.497" style="fill:none;fill-rule:nonzero;stroke:#becdf8;stroke-width:0.92px;"/><path d="M-53.692,146.969l360.348,-418.497" style="fill:none;fill-rule:nonzero;stroke:#becdf8;stroke-width:0.92px;"/><path d="M74.689,406.614l360.348,-418.497" style="fill:none;fill-rule:nonzero;stroke:#becdf8;stroke-width:0.92px;"/><path d="M-44.894,165.548l360.348,-418.497" style="fill:none;fill-rule:nonzero;stroke:#becdf8;stroke-width:0.92px;"/><path d="M83.488,425.193l360.348,-418.497" style="fill:none;fill-rule:nonzero;stroke:#becdf8;stroke-width:0.92px;"/><path d="M-36.095,184.127l360.348,-418.497" style="fill:none;fill-rule:nonzero;stroke:#becdf8;stroke-width:0.92px;"/><path d="M92.287,443.772l360.348,-418.497" style="fill:none;fill-rule:nonzero;stroke:#becdf8;stroke-width:0.92px;"/><path d="M-27.296,202.706l360.348,-418.497" style="fill:none;fill-rule:nonzero;stroke:#becdf8;stroke-width:0.92px;"/><path d="M101.086,462.352l360.348,-418.497" style="fill:none;fill-rule:nonzero;stroke:#becdf8;stroke-width:0.92px;"/><path d="M-18.497,221.286l360.348,-418.497" style="fill:none;fill-rule:nonzero;stroke:#becdf8;stroke-width:0.92px;"/><path d="M109.884,480.931l360.348,-418.497" style="fill:none;fill-rule:nonzero;stroke:#becdf8;stroke-width:0.92px;"/><path d="M-9.699,239.865l360.348,-418.497" style="fill:none;fill-rule:nonzero;stroke:#becdf8;stroke-width:0.92px;"/><path d="M118.683,499.51l360.348,-418.497" style="fill:none;fill-rule:nonzero;stroke:#becdf8;stroke-width:0.92px;"/><path d="M127.482,518.09l360.348,-418.497" style="fill:none;fill-rule:nonzero;stroke:#becdf8;stroke-width:0.92px;"/><path d="M-0.5,259.838l360.348,-418.497" style="fill:none;fill-rule:nonzero;stroke:#becdf8;stroke-width:0.92px;"/><path d="M136.281,536.669l360.348,-418.497" style="fill:none;fill-rule:nonzero;stroke:#becdf8;stroke-width:0.92px;"/><path d="M8.299,278.417l360.348,-418.497" style="fill:none;fill-rule:nonzero;stroke:#becdf8;stroke-width:0.92px;"/><path d="M145.08,555.248l360.348,-418.497" style="fill:none;fill-rule:nonzero;stroke:#becdf8;stroke-width:0.92px;"/><path d="M17.097,296.996l360.348,-418.497" style="fill:none;fill-rule:nonzero;stroke:#becdf8;stroke-width:0.92px;"/></g></g></svg>