<?xml version="1.0" encoding="UTF-8" standalone="no"?><!DOCTYPE svg PUBLIC "-//W3C//DTD SVG 1.1//EN" "http://www.w3.org/Graphics/SVG/1.1/DTD/svg11.dtd"><svg width="100%" height="100%" viewBox="0 0 3334 2500" version="1.1" xmlns="http://www.w3.org/2000/svg" xmlns:xlink="http://www.w3.org/1999/xlink" xml:space="preserve" xmlns:serif="http://www.serif.com/" style="fill-rule:evenodd;clip-rule:evenodd;stroke-linejoin:round;stroke-miterlimit:2;"><rect x="0" y="0" width="3333.33" height="2500" style="fill:none;"/><g><path d="M2107.19,79.04c7.898,1.974 11.846,6.91 11.846,14.808c0,7.897 -3.948,11.846 -11.846,11.846c-11.846,-1.975 -22.705,-2.962 -32.577,-2.962l-20.731,0c-15.795,0 -28.628,1.481 -38.5,4.443c-9.872,2.961 -19.743,10.365 -29.615,22.211c-41.462,53.308 -85.885,123.892 -133.27,211.751c-47.385,87.859 -93.782,174.238 -139.193,259.136c-45.41,82.923 -90.821,163.378 -136.231,241.366c-45.41,77.987 -91.808,154.494 -139.193,229.52c-31.59,51.333 -69.596,106.122 -114.019,164.366c-44.424,58.244 -86.379,106.122 -125.866,143.635c-43.436,41.462 -89.834,82.43 -139.193,122.904c-49.359,40.475 -103.161,76.507 -161.405,108.097c-58.243,31.59 -120.929,57.256 -188.058,77c-67.128,19.744 -142.154,29.615 -225.078,29.615c-88.846,0 -164.859,-12.833 -228.039,-38.5c-9.872,-3.948 -17.276,-8.391 -22.211,-13.327c-4.936,-4.936 -6.417,-14.314 -4.443,-28.134c0,-13.821 0.494,-33.071 1.481,-57.751c0.987,-24.679 2.468,-50.839 4.442,-78.481l20.731,-5.923c7.898,51.334 33.071,95.263 75.52,131.789c42.448,36.526 111.058,54.789 205.827,54.789c82.924,-0 159.43,-14.314 229.52,-42.943c70.09,-28.628 143.635,-81.442 220.636,-158.442c69.103,-69.103 138.699,-154.495 208.789,-256.174c70.09,-101.68 142.648,-215.7 217.674,-342.059c33.564,-57.257 69.103,-118.956 106.616,-185.097c37.512,-66.141 74.038,-132.776 109.577,-199.905c35.538,-67.128 69.103,-131.789 100.692,-193.981c31.59,-62.193 58.244,-116.981 79.962,-164.366c1.975,-3.949 2.962,-9.872 2.962,-17.769c-0,-7.898 -5.923,-11.847 -17.769,-11.847c-41.462,0 -85.885,2.468 -133.27,7.404c-47.385,4.936 -94.77,12.34 -142.154,22.212c-47.385,9.872 -92.796,21.718 -136.232,35.538c-43.436,13.821 -81.936,29.616 -115.5,47.385c-33.564,17.77 -63.673,45.411 -90.327,82.924c-26.654,37.513 -39.981,78.974 -39.981,124.385c-0,15.795 1.974,29.615 5.923,41.461c3.949,5.923 1.974,8.885 -5.923,8.885c-9.872,-5.923 -20.238,-17.769 -31.097,-35.539c-10.859,-17.769 -16.288,-45.41 -16.288,-82.923c-0,-31.59 15.795,-67.622 47.385,-108.096c31.59,-40.475 88.846,-74.533 171.77,-102.174c29.615,-9.872 64.166,-18.756 103.654,-26.654c39.487,-7.897 89.833,-15.301 151.039,-22.211c61.205,-6.911 135.737,-12.34 223.597,-16.289c87.859,-3.949 193.981,-5.923 318.366,-5.923Z" style="fill-rule:nonzero;"/></g><g><path d="M1520.34,2358.83l8.398,-5.599c22.395,11.198 47.59,19.596 75.584,25.195c27.994,5.599 55.054,8.398 81.182,8.398c63.453,0 125.973,-17.263 187.56,-51.789c61.586,-34.526 120.84,-78.849 177.761,-132.971c56.921,-54.122 111.043,-116.175 162.365,-186.16c51.323,-69.985 98.912,-139.503 142.77,-208.555c43.857,-69.052 83.048,-135.771 117.574,-200.157c34.526,-64.386 63.92,-118.974 88.181,-163.764c0,-14.93 -5.599,-16.797 -16.796,-5.599c-16.797,14.93 -44.324,37.325 -82.582,67.185c-38.259,29.861 -83.982,59.254 -137.171,88.181c-53.188,28.927 -112.909,54.589 -179.161,76.984c-66.253,22.395 -135.771,33.592 -208.555,33.592c-136.237,0 -239.349,-28.46 -309.333,-85.381c-69.985,-56.921 -104.978,-134.838 -104.978,-233.75c0,-39.191 11.198,-97.045 33.593,-173.562c22.395,-76.517 59.72,-158.633 111.976,-246.347c52.255,-87.714 120.84,-173.096 205.755,-256.145c84.915,-83.049 189.893,-150.701 314.932,-202.956c74.651,-29.86 148.835,-50.389 222.552,-61.587c73.718,-11.197 141.37,-16.796 202.957,-16.796c31.726,-0 66.252,1.866 103.577,5.599c37.326,3.732 73.718,9.798 109.177,18.196c35.459,8.398 68.118,20.062 97.979,34.992c29.86,14.93 53.188,32.66 69.985,53.189c-7.466,31.726 -19.13,70.451 -34.993,116.175c-15.863,45.723 -31.26,85.381 -46.19,118.974l-19.596,5.599l-2.799,-8.398c3.732,-11.198 6.532,-22.396 8.398,-33.593c1.866,-11.198 2.799,-23.328 2.799,-36.392c0,-33.593 -9.797,-65.32 -29.393,-95.18c-19.596,-29.86 -46.19,-55.988 -79.783,-78.383c-33.593,-22.395 -72.784,-39.658 -117.575,-51.789c-44.79,-12.13 -92.38,-18.196 -142.769,-18.196c-95.179,0 -183.827,20.063 -265.942,60.187c-82.116,40.125 -156.767,93.78 -223.952,160.966c-41.058,39.191 -84.915,90.047 -131.572,152.567c-46.656,62.519 -90.047,129.705 -130.172,201.556c-40.124,71.851 -73.251,144.169 -99.378,216.953c-26.128,72.785 -39.192,139.97 -39.192,201.557c0,74.65 25.195,131.571 75.584,170.763c50.389,39.192 123.173,58.787 218.353,58.787c82.115,0 164.231,-17.263 246.347,-51.789c82.115,-34.525 157.232,-77.449 225.351,-128.772c68.119,-51.322 127.373,-108.243 177.762,-170.763c50.389,-62.52 85.848,-121.774 106.377,-177.762c7.465,-18.662 10.731,-32.659 9.798,-41.99c-0.933,-9.332 -11.665,-13.997 -32.193,-13.997c-31.727,1.866 -69.052,4.665 -111.976,8.398c-42.924,3.732 -89.581,7.465 -139.97,11.197l-8.398,-2.799l8.398,-30.793c37.325,-0 78.85,-0.934 124.573,-2.8c45.724,-1.866 91.447,-4.199 137.17,-6.998c45.724,-2.8 89.581,-7.465 131.572,-13.997c41.991,-6.532 79.783,-13.531 113.376,-20.996c7.465,5.599 7.465,13.997 -0,25.195c-29.861,7.465 -50.39,16.33 -61.587,26.594c-11.198,10.265 -23.328,28.461 -36.392,54.588c-35.459,69.052 -76.05,147.902 -121.774,236.549c-45.723,88.648 -93.313,177.762 -142.769,267.343c-49.456,89.58 -99.379,174.029 -149.768,253.345c-50.389,79.316 -97.979,144.169 -142.769,194.558c-18.663,22.395 -45.257,51.322 -79.783,86.781c-34.526,35.459 -76.05,69.519 -124.573,102.178c-48.523,32.66 -104.511,61.12 -167.964,85.382c-63.453,24.261 -134.371,36.392 -212.754,36.392c-26.128,-0 -52.255,-1.866 -78.383,-5.599c-26.128,-3.732 -54.122,-11.197 -83.982,-22.395l-2.799,-19.596Z" style="fill-rule:nonzero;"/></g></svg>